Coordinates
version=1
nRows=11
nColumns=40
inDegrees=yes

Units are S.I. units (second, meters, Newtons, ...)
Angles are in degrees.

endheader
time	pelvis_tilt	pelvis_list	pelvis_rotation	pelvis_tx	pelvis_ty	pelvis_tz	hip_flexion_r	hip_adduction_r	hip_rotation_r	knee_angle_r	knee_angle_r_beta	ankle_angle_r	subtalar_angle_r	mtp_angle_r	hip_flexion_l	hip_adduction_l	hip_rotation_l	knee_angle_l	knee_angle_l_beta	ankle_angle_l	subtalar_angle_l	mtp_angle_l	lumbar_extension	lumbar_bending	lumbar_rotation	arm_flex_r	arm_add_r	arm_rot_r	elbow_flex_r	pro_sup_r	wrist_flex_r	wrist_dev_r	arm_flex_l	arm_add_l	arm_rot_l	elbow_flex_l	pro_sup_l	wrist_flex_l	wrist_dev_l
     40.95750000	     -3.86469727	     -4.70976003	    -11.02921090	      0.98603945	      0.92751766	      0.53126202	     18.14733865	      4.45726459	     -5.84731430	     21.28802039	     21.28802039	      7.91013927	     -0.42914069	     -1.79266546	     -1.91219974	     -8.70574393	    -13.94396790	     25.60246645	     25.60246645	     16.61466912	    -11.21368887	     -4.47878181	     -9.56049477	      9.79778906	      0.86160837	    -10.88167029	    -12.01851387	    -24.39721449	     28.60707274	     46.84059527	      0.00000000	      0.00000000	     34.36548576	    -22.17898146	    -11.79657037	     73.83129953	     48.48293233	      0.00000000	      0.00000000
     40.97685714	     -3.73132365	     -4.78591065	    -10.60119204	      0.98759348	      0.92864275	      0.53632464	     17.19297229	      4.71668758	     -6.23364943	     20.85068310	     20.85068310	      8.30276889	     -0.25775328	     -1.75379911	     -1.07921423	     -9.50734513	    -13.28705989	     28.21350198	     28.21350198	     15.48210729	    -11.94163335	     -5.05991619	     -9.52840110	      9.59266246	      0.98321374	    -10.58343455	    -12.21434067	    -24.39032507	     28.65603392	     46.83881075	      0.00000000	      0.00000000	     33.32145428	    -21.44674981	    -11.55092144	     73.52498095	     48.44837517	      0.00000000	      0.00000000
     40.99621429	     -3.73100317	     -4.74262740	    -10.10941184	      0.98883940	      0.92919530	      0.54110216	     16.60895328	      4.81104091	     -6.76848465	     20.77627669	     20.77627669	      8.93680941	      0.01689192	     -1.43051708	      0.08300235	    -10.22225793	    -12.50173326	     30.88217908	     30.88217908	     12.84756655	    -13.41230423	     -8.87672939	     -9.27084848	      9.31536265	      0.80285628	    -10.02489094	    -12.49032484	    -24.27892765	     28.33043088	     46.83438292	      0.00000000	      0.00000000	     32.01215354	    -20.74923809	    -11.61292033	     72.72366949	     48.39623259	      0.00000000	      0.00000000
     41.01557143	     -3.55995312	     -4.83489139	     -9.60551079	      0.98992807	      0.92986630	      0.54578077	     15.71498175	      5.07022572	     -7.17178842	     20.46302507	     20.46302507	      9.36760079	      0.09818363	     -1.42021185	      1.37397357	    -11.07696952	    -11.59748390	     34.19810107	     34.19810107	     11.39317397	    -14.24001907	     -9.44290516	     -9.30788831	      9.15109887	      0.94104686	     -9.65468542	    -12.76088380	    -24.27080494	     28.36143192	     46.83431001	      0.00000000	      0.00000000	     30.66351585	    -19.85902943	    -11.31785323	     72.23569591	     48.35188872	      0.00000000	      0.00000000
     41.03492857	     -3.36201529	     -4.92041735	     -9.05991196	      0.99072129	      0.93015036	      0.55019245	     14.98289598	      5.28775694	     -7.61616545	     20.46270532	     20.46270532	      9.87052013	      0.07713052	     -1.48280273	      2.88025788	    -11.88751067	    -10.53260687	     37.79796486	     37.79796486	      9.81234412	    -15.19644970	     -9.87263681	     -9.39217159	      8.99405573	      0.97124028	     -9.12734467	    -13.07114652	    -24.26105543	     28.40673477	     46.83552643	      0.00000000	      0.00000000	     29.19152442	    -19.00161508	    -11.01690048	     71.46603029	     48.30217645	      0.00000000	      0.00000000
     41.05428571	     -3.29066269	     -4.86694941	     -8.45466758	      0.99117994	      0.92986165	      0.55418122	     14.59717300	      5.33878186	     -8.02365840	     20.77471956	     20.77471956	     10.54396766	     -0.06600723	     -1.46793717	      4.75903614	    -12.42476451	     -9.16119573	     41.54604679	     41.54604679	      8.11674714	    -16.48416711	     -9.96655100	     -9.23883502	      8.75662429	      0.78080103	     -8.36650586	    -13.41281007	    -24.20587690	     28.17427338	     46.84516230	      0.00000000	      0.00000000	     27.55252227	    -18.23455874	    -10.71788876	     69.98832013	     48.23296550	      0.00000000	      0.00000000
     41.07364286	     -3.02327809	     -4.99776657	     -7.82009804	      0.99145004	      0.92944962	      0.55796102	     14.01835679	      5.55963937	     -8.46965346	     21.12931129	     21.12931129	     11.21174627	     -0.32729778	     -1.55061433	      6.52142526	    -13.12611154	     -7.91087723	     45.35893328	     45.35893328	      6.68275305	    -17.39717168	     -9.49375684	     -9.43752920	      8.70255763	      0.78169091	     -7.61376056	    -13.80858768	    -24.18650124	     28.11240012	     46.85263579	      0.00000000	      0.00000000	     25.90320536	    -17.32568235	    -10.32203318	     68.73749579	     48.16618490	      0.00000000	      0.00000000
     41.09300000	     -2.80872924	     -4.89283971	     -7.16450850	      0.99132672	      0.92856081	      0.56121784	     13.89286386	      5.49104124	     -8.74654927	     22.12825255	     22.12825255	     12.17389414	     -0.89410089	     -1.08601891	      8.64652826	    -13.31484839	     -6.37710455	     49.46736545	     49.46736545	      6.94004249	    -17.93729049	     -4.51259391	     -9.40366671	      8.45808018	      0.45055494	     -6.09798824	    -14.24627194	    -24.05367670	     26.88037371	     46.90398290	      0.00000000	      0.00000000	     24.59835664	    -16.62793732	     -9.65994635	     65.29917363	     48.03044962	      0.00000000	      0.00000000
     41.11235714	     -2.54639921	     -4.97950076	     -6.49250631	      0.99106299	      0.92736938	      0.56428109	     13.64697023	      5.62509825	     -9.09265699	     23.01597461	     23.01597461	     13.17241657	     -1.39229298	     -0.60651518	     10.75858715	    -13.69609468	     -5.02105860	     53.45367985	     53.45367985	      7.87238150	    -18.13367063	      1.45949200	     -9.53743181	      8.42917361	      0.49397028	     -4.81230321	    -14.65467911	    -24.21310912	     25.97196964	     46.96230585	      0.00000000	      0.00000000	     23.15327540	    -15.63329524	     -8.75908596	     62.53070628	     47.88529722	      0.00000000	      0.00000000
     41.13171429	     -2.20439094	     -5.11018528	     -5.82265567	      0.99062688	      0.92591466	      0.56710793	     13.41939411	      5.78835407	     -9.41119966	     24.06597072	     24.06597072	     14.17751936	     -1.94559909	     -0.23747023	     12.72854183	    -14.09035802	     -3.87097573	     57.01986315	     57.01986315	      8.96538614	    -18.46939402	      7.25202398	     -9.78647818	      8.45562823	      0.60513132	     -3.50229517	    -15.07765130	    -24.60355483	     25.26606514	     47.03154559	      0.00000000	      0.00000000	     21.76056471	    -14.64506343	     -7.78119547	     59.45642000	     47.73050452	      0.00000000	      0.00000000
     41.15107143	     -1.81900980	     -5.22168348	     -5.16946103	      0.99006237	      0.92418244	      0.56973634	     13.24657716	      5.95004099	     -9.58452063	     25.27229174	     25.27229174	     15.17181500	     -2.78556169	     -0.03528550	     14.51702403	    -14.53207584	     -3.08163134	     60.00568697	     60.00568697	      9.94730794	    -18.85794211	     11.85320679	    -10.02884023	      8.45531758	      0.49958741	     -1.94283636	    -15.42243945	    -24.99530768	     24.81455469	     47.09407483	      0.00000000	      0.00000000	     20.23852064	    -13.78475830	     -6.72871230	     55.92798544	     47.56975658	      0.00000000	      0.00000000
